<?xml version="1.0" encoding="iso-8859-1"?>
<!-- Generator: Adobe Illustrator 19.0.0, SVG Export Plug-In . SVG Version: 6.00 Build 0)  -->
<svg xmlns="http://www.w3.org/2000/svg" xmlns:xlink="http://www.w3.org/1999/xlink" version="1.1" id="Capa_1" x="0px" y="0px" viewBox="0 0 512.001 512.001" style="enable-background:new 0 0 512.001 512.001;" xml:space="preserve" width="512px" height="512px">
<g>
	<g>
		<path d="M437.02,74.981C388.667,26.628,324.38,0,256,0S123.333,26.628,74.981,74.981C26.629,123.333,0.001,187.62,0.001,256.001    s26.628,132.667,74.981,181.02C123.333,485.373,187.62,512.001,256,512.001s132.667-26.628,181.02-74.981    C485.371,388.668,512,324.382,512,256.001S485.371,123.333,437.02,74.981z M220.898,253.747c0-20.185,17.125-36.445,37.609-35.015    c17.291,1.208,31.298,15.214,32.507,32.505c1.433,20.484-14.829,37.612-35.014,37.612c-7.047,0-13.614-2.089-19.117-5.679    c-2.021-1.319-4.562-1.553-6.779-0.6l-56.988,24.496c-1.93,0.83-3.939,1.223-5.915,1.223c-5.811,0-11.342-3.399-13.784-9.077    c-3.27-7.609,0.247-16.428,7.854-19.699l59.628-25.631C220.901,253.837,220.898,253.793,220.898,253.747z M298.791,388.781    c0,8.281-6.714,14.995-14.995,14.995h-55.591c-8.281,0-14.995-6.714-14.995-14.995c0-8.281,6.714-14.995,14.995-14.995h55.591    C292.077,373.786,298.791,380.499,298.791,388.781z M299.24,448.8h-86.48c-8.281,0-14.995-6.714-14.995-14.995    s6.714-14.995,14.995-14.995h86.48c8.281,0,14.995,6.714,14.995,14.995S307.521,448.8,299.24,448.8z M388.54,379.17    c-2.95,3.129-6.928,4.708-10.913,4.708c-3.085,0-6.169-0.961-8.793-2.867c-1.342-0.693-2.603-1.597-3.728-2.722l-24.582-24.582    c-5.856-5.856-5.856-15.35,0-21.206c5.856-5.855,15.351-5.855,21.206,0l8.77,8.77c3.167,3.167,8.453,2.717,10.989-0.974    c12.981-18.884,21.479-40.388,24.914-63.059c0.658-4.339-2.732-8.239-7.12-8.239h-11.351c-8.074,0-15.022-6.205-15.402-14.27    c-0.406-8.611,6.456-15.72,14.978-15.72h11.686c4.41,0,7.793-3.936,7.114-8.292c-3.799-24.344-13.393-46.793-27.319-65.891    c-2.595-3.558-7.769-3.937-10.883-0.823l-7.682,7.682c-2.928,2.927-6.767,4.392-10.603,4.392c-3.859,0-7.718-1.481-10.652-4.441    c-5.863-5.916-5.524-15.585,0.365-21.475l7.467-7.467c3.103-3.103,2.738-8.254-0.792-10.862    c-19.334-14.282-42.156-24.099-66.931-27.919c-4.355-0.672-8.285,2.709-8.285,7.116v10.447c0,8.074-6.205,15.022-14.27,15.402    c-8.611,0.406-15.72-6.456-15.72-14.978v-10.871c0-4.406-3.929-7.787-8.282-7.116c-27.445,4.232-52.493,15.825-73.057,32.693    l13.555,13.555c5.889,5.889,6.228,15.558,0.365,21.475c-2.934,2.961-6.793,4.441-10.652,4.441c-3.838,0-7.675-1.464-10.603-4.392    l-8.12-8.12c-3.107-3.107-8.267-2.738-10.87,0.803c-14.055,19.127-23.752,41.645-27.611,66.079    c-0.689,4.361,2.697,8.305,7.112,8.305h10.372c8.074,0,15.022,6.205,15.402,14.27c0.406,8.611-6.456,15.72-14.978,15.72h-10.951    c-4.381,0-7.772,3.888-7.121,8.219c3.27,21.767,11.215,42.515,23.31,60.882c2.491,3.783,7.854,4.281,11.057,1.079l7.312-7.312    c5.856-5.855,15.351-5.855,21.206,0c5.856,5.856,5.856,15.35,0,21.206l-24.583,24.582c-2.928,2.927-6.767,4.392-10.603,4.392    c-1.28,0-2.557-0.178-3.803-0.504c-3.103-0.581-6.051-2.125-8.335-4.643c-30.468-33.558-47.248-77.022-47.248-122.383    c0-0.138,0.005-0.274,0.005-0.412c0-0.035-0.005-0.069-0.005-0.104c0-0.058,0.008-0.115,0.009-0.173    C74.259,153.466,155.807,72.139,256,72.139c100.423,0,182.123,81.7,182.123,182.123    C438.123,300.895,420.514,345.255,388.54,379.17z" fill="#FFFFFF"/>
	</g>
</g>
<g>
	<g>
		<path d="M256,248.635c-2.818,0-5.111,2.293-5.111,5.112c0,2.818,2.293,5.111,5.111,5.111s5.111-2.293,5.111-5.111    C261.111,250.928,258.818,248.635,256,248.635z" fill="#FFFFFF"/>
	</g>
</g>
<g>
</g>
<g>
</g>
<g>
</g>
<g>
</g>
<g>
</g>
<g>
</g>
<g>
</g>
<g>
</g>
<g>
</g>
<g>
</g>
<g>
</g>
<g>
</g>
<g>
</g>
<g>
</g>
<g>
</g>
</svg>
